<svg viewBox="0 0 116 1920" fill="none" preserveAspectRation="xMidYMax meet">
  <path fill-rule="evenodd" clipRule="evenodd" d="M71.2244 136.5C71.1055 136.698 71.0344 136.882 71 137.047V137.069V137.092V137.116V137.14V137.164V137.188V137.213V137.238V137.263V137.289V137.315V137.341V137.367V137.394V137.421V137.448V137.475V137.503V137.531V137.559V137.588V137.617V137.646V137.675V137.705V137.735V137.765V137.796V137.826V137.857V137.889V137.92V137.952V137.984V138.016V138.049V138.082V138.115V138.149V138.183V138.217V138.251V138.286V138.32V138.356V138.391V138.427V138.463V138.499V138.536V138.572V138.609V138.647V138.685V138.722V138.761V138.799V138.838V138.877V138.916V138.956V138.996V139.036V139.077V139.117V139.158V139.2V139.241V139.283V139.325V139.368V139.41V139.453V139.497V139.54V139.584V139.628V139.673V139.717V139.762V139.808V139.853V139.899V139.945V139.992V140.038V140.085V140.132V140.18V140.228V140.276V140.324V140.373V140.422V140.471V140.521V140.571V140.621V140.671V140.722V140.773V140.824V140.876V140.928V140.98V141.032V141.085V141.138V141.191V141.245V141.299V141.353V141.408V141.462V141.517V141.573V141.628V141.684V141.74V141.797V141.854V141.911V141.968V142.026V142.084V142.142V142.201V142.26V142.319V142.378V142.438V142.498V142.558V142.619V142.68V142.741V142.802V142.864V142.926V142.989V143.051V143.114V143.178V143.241V143.305V143.369V143.434V143.499V143.564V143.629V143.695V143.761V143.827V143.893V143.96V144.027V144.095V144.162V144.231V144.299V144.367V144.436V144.506V144.575V144.645V144.715V144.786V144.856V144.927V144.999V145.07V145.142V145.215V145.287V145.36V145.433V145.507V145.58V145.654V145.729V145.803V145.878V145.954V146.029V146.105V146.181V146.258V146.335V146.412V146.489V146.567V146.645V146.723V146.802V146.881V146.96V147.04V147.12V147.2V147.28V147.361V147.442V147.523V147.605V147.687V147.77V147.852V147.935V148.018V148.102V148.186V148.27V148.354V148.439V148.524V148.61V148.696V148.782V148.868V148.955V149.042V149.129V149.216V149.304V149.393V149.481V149.57V149.659V149.749V149.838V149.928V150.019V150.11V150.201V150.292V150.384V150.476V150.568V150.66V150.753V150.847V150.94V151.034V151.128V151.223V151.318V151.413V151.508V151.604V151.7V151.796V151.893V151.99V152.087V152.185V152.283V152.381V152.48V152.579V152.678V152.778V152.878V152.978V153.079V153.179V153.281V153.382V153.484V153.586V153.688V153.791V153.894V153.998V154.102V154.206V154.31V154.415V154.52V154.625V154.731V154.837V154.943V155.05V155.157V155.264V155.372V155.479V155.588V155.696V155.805V155.914V156.024V156.134V156.244V156.355V156.466V156.577V156.688V156.8V156.912V157.025V157.138V157.251V157.364V157.478V157.592V157.707V157.821V157.936V158.052V158.168V158.284V158.4V158.517V158.634V158.751V158.869V158.987V159.106V159.224V159.344V159.463V159.583V159.703V159.823V159.944V160.065V160.186V160.308V160.43V160.552V160.675V160.798V160.922V161.045V161.169V161.294V161.418V161.543V161.669V161.795V161.921V162.047V162.174V162.301V162.428V162.556V162.684V162.812V162.941V163.07V163.2V163.329V163.459V163.59V163.721V163.852V163.983V164.115V164.247V164.379V164.512V164.645V164.779V164.912V165.047V165.181V165.316V165.451V165.587V165.722V165.859V165.995V166.132V166.269V166.407V166.545V166.683V166.821V166.96V167.099V167.239V167.379V167.519V167.66V167.801V167.942V168.084V168.226V168.368V168.511V168.654V168.797V168.941V169.085V169.229V169.374V169.519V169.665V169.81V169.956V170.103V170.25V170.397V170.544V170.692V170.841V170.989V171.138V171.287V171.437V171.587V171.737V171.888V172.039V172.19V172.342V172.494V172.646V172.799V172.952V173.105V173.259V173.413V173.568V173.723V173.878V174.033V174.189V174.345V174.502V174.659V174.816V174.974V175.132V175.29V175.449V175.608V175.767V175.927V176.087V176.248V176.409V176.57V176.731V176.893V177.055V177.218V177.381V177.544V177.708V177.872V178.036V178.201V178.366V178.532V178.697V178.864V179.03V179.197V179.364V179.532V179.7V179.868V180.037V180.206V180.375V180.545V180.715V180.885V181.056V181.227V181.399V181.571V181.743V181.916V182.089V182.262V182.436V182.61V182.784V182.959V183.134V183.309V183.485V183.661V183.838V184.015V184.192V184.37V184.548V184.726V184.905V185.084V185.264V185.444V185.624V185.804V185.985V186.167V186.348V186.53V186.713V186.896V187.079V187.262V187.446V187.63V187.815V188C71 197.854 71.5612 203.615 71.9571 206.806C72.0318 207.408 72.1022 207.928 72.162 208.371L72.1622 208.372C72.2581 209.082 72.3271 209.592 72.344 209.921C72.3512 210.059 72.3516 210.198 72.3326 210.323C72.3162 210.43 72.2708 210.635 72.093 210.782C71.884 210.955 71.6461 210.932 71.5123 210.895C71.3842 210.861 71.2658 210.794 71.1743 210.738C71.1424 210.718 71.1092 210.696 71.0745 210.673C71.0504 210.657 71.0255 210.64 71 210.622V262.368C72.7765 261.22 74.3675 259.896 75.7829 258.472C80.6407 253.586 83.4234 247.53 84.5 243.436V161H85.5V243.5V243.564L85.4839 243.626C84.382 247.864 81.5183 254.122 76.4921 259.178C74.8866 260.792 73.0599 262.285 71 263.549V1223.67C76.8206 1226.16 89.1342 1234.12 94.7861 1247.39C96.9525 1246.78 98.6946 1247.12 100.022 1248.32C101.394 1249.55 102.234 1251.62 102.74 1254.15C103.755 1259.23 103.498 1266.54 102.999 1274.03L102.994 1274.11L102.967 1274.18C102.528 1275.32 101.591 1276.99 100.182 1278.32C98.8516 1279.59 97.068 1280.59 94.8751 1280.52C93.742 1284.49 90.6468 1290.26 84.8935 1295.21L86.4359 1303.12C96.3152 1306.65 115.5 1320.06 115.5 1346.5V1346.56L115.485 1346.62C115.222 1347.67 114.595 1349.24 113.555 1350.56C112.512 1351.88 111.007 1353 109 1353H108.979H108.957H108.935H108.913H108.891H108.868H108.846H108.823H108.799H108.775H108.752H108.727H108.703H108.678H108.653H108.628H108.603H108.577H108.551H108.525H108.498H108.471H108.444H108.417H108.389H108.362H108.334H108.305H108.277H108.248H108.219H108.19H108.16H108.13H108.1H108.07H108.04H108.009H107.978H107.947H107.915H107.884H107.852H107.82H107.787H107.755H107.722H107.689H107.655H107.622H107.588H107.554H107.52H107.485H107.451H107.416H107.381H107.345H107.31H107.274H107.238H107.202H107.165H107.128H107.092H107.054H107.017H106.98H106.942H106.904H106.866H106.827H106.789H106.75H106.711H106.672H106.632H106.593H106.553H106.513H106.473H106.432H106.392H106.351H106.31H106.269H106.227H106.186H106.144H106.102H106.06H106.017H105.975H105.932H105.889H105.846H105.803H105.759H105.715H105.672H105.628H105.583H105.539H105.494H105.449H105.405H105.359H105.314H105.269H105.223H105.177H105.131H105.085H105.038H104.992H104.945H104.898H104.851H104.804H104.757H104.709H104.661H104.614H104.566H104.517H104.469H104.421H104.372H104.323H104.274H104.225H104.176H104.126H104.076H104.027H103.977H103.927H103.877H103.826H103.776H103.725H103.674H103.623H103.572H103.521H103.469H103.418H103.366H103.314H103.263H103.21H103.158H103.106H103.053H103.001H102.948H102.895H102.842H102.789H102.736H102.682H102.629H102.575H102.521H102.467H102.413H102.359H102.305H102.25H102.196H102.141H102.086H102.031H101.976H101.921H101.866H101.811H101.755H101.699H101.644H101.588H101.532H101.476H101.42H101.364H101.307H101.251H101.194H101.137H101.081H101.024H100.967H100.91H100.852H100.795H100.738H100.68H100.623H100.565H100.507H100.449H100.392H100.333H100.275H100.217H100.159H100.1H100.042H99.9833H99.9247H99.8659H99.8071H99.7482H99.6892H99.6301H99.571H99.5118H99.4525H99.3931H99.3336H99.2741H99.2145H99.1548H99.095H99.0352H98.9753H98.9153H98.8553H98.7952H98.735H98.6748H98.6145H98.5541H98.4937H98.4332H98.3726H98.312H98.2513H98.1906H98.1298H98.069H98.0081H97.9471H97.8861H97.825H97.7639H97.7027H97.6415H97.5802H97.5189H97.4575H97.3961H97.3346H97.2731H97.2116H97.15H97.0883H97.0266H96.9649H96.9031H96.8413H96.7795H96.7176H96.6557H96.5938H96.5318H96.4697H96.4077H96.3456H96.2835H96.2213H96.1592H96.097H96.0347H95.9725H95.9102H95.8479H95.7856H95.7232H95.6608H95.5984H95.536H95.4736H95.4111H95.3487H95.2862H95.2237H95.1611H95.0986H95.0361H94.9735H94.9109H94.8484H94.7858H94.7232H94.6606H94.598H94.5353H94.4727H94.4101H94.3475H94.2848H94.2222H94.1596H94.0969H94.0343H93.9717H93.9091H93.8464H93.7838H93.7212H93.6586H93.596H93.5334H93.4709H93.4083H93.3457H93.2832H93.2207H93.1582H93.0957H93.0332H92.9707H92.9083H92.8458H92.7834H92.721H92.6587H92.5963H92.534H92.4717H92.4094H92.3472H92.285H92.2228H92.1606H92.0985H92.0364H91.9743H91.9123H91.8503H91.7883H91.7263H91.6644H91.6026H91.5407H91.479H91.4172H91.3555H91.2938H91.2322H91.1706H91.1091H91.0476H90.9861H90.9247H90.8634H90.8021H90.7408H90.6796H90.6185H90.5574H90.4963H90.4353H90.3744H90.3135H90.2526H90.1919H90.1312H90.0705H90.0099H89.9494H89.8889H89.8285H89.7682H89.7079H89.6477H89.5875H89.5274H89.4674H89.4075H89.3476H89.2878H89.2281H89.1684H89.1088H89.0493H88.9899H88.9306H88.8713H88.8121H88.753H88.6939H88.635H88.5761H88.5173H88.4586H88.3999H88.3414H88.283H88.2246H88.1663H88.1081H88.05H87.992H87.9341H87.8763H87.8185H87.7609H87.7034H87.6459H87.5886H87.5313H87.4742H87.4171H87.3602H87.3033H87.2466H87.1899H87.1334H87.077H87.0206H86.9644H86.9083H86.8523H86.7964H86.7406H86.685H86.6294H86.574H86.5186H86.4634H86.4083H86.3534H86.2985H86.2438H86.1891H86.1346H86.0802H86.026H85.9719H85.9178H85.864H85.8102H85.7566H85.7031H85.6497H85.5964H85.5433H85.4903H85.4375H85.3848H85.3322H85.2798H85.2274H85.1753H85.1232H85.0713H85.0196H84.968H84.9165H84.8651H84.814H84.7629H84.712H84.6613H84.6106H84.5602H84.5099H84.4597H84.4097H84.3598H84.3101H84.2606H84.2112H84.1619H84.1128H84.0639H84.0151H83.9665H83.9181H83.8698H83.8216H83.7737H83.7258H83.6782H83.6307H83.5834H83.5363H83.4893H83.4425H83.3958H83.3493H83.303H83.2569H83.211H83.1652H83.1196H83.0742H83.0289H82.9838H82.9389H82.8942H82.8497H82.8053H82.7611H82.7171H82.6733H82.6297H82.5863H82.543H82.5H82V1352.5V1336.06C81.7547 1335.03 81.1347 1333.46 80.0637 1332.04C78.9764 1330.6 77.4512 1329.36 75.4105 1328.99C74.3555 1328.8 72.2719 1328.68 69.5461 1328.62C66.8344 1328.55 63.5247 1328.55 60.0416 1328.57L59.541 1328.58C59.3635 1328.58 59.1857 1328.58 59.0075 1328.58H59V1920H58V1328.6C51.648 1328.67 45.0137 1328.85 40.5763 1329C39.7099 1329.24 38.346 1329.81 37.0547 1330.74C35.7557 1331.68 34.5666 1332.95 34 1334.58V1352.5V1353H33.5H8.01885C6.85563 1353.09 5.10656 1352.87 3.57729 1351.94C2.01265 1350.99 0.713934 1349.3 0.501435 1346.54C0.243075 1343.18 1.5215 1334.47 5.799 1325.53C10.0842 1316.59 17.4167 1307.34 29.3299 1303.03L29.5876 1302.94L29.8048 1303.1C34.0822 1306.39 45.8318 1312.79 58.4688 1312L59 1311.97V1312.5V1327.58L59.7137 1327.58L60.0333 1327.58C63.5211 1327.55 66.8426 1327.55 69.5695 1327.62C72.2822 1327.68 74.4444 1327.8 75.5894 1328.01C77.9487 1328.44 79.6736 1329.87 80.8613 1331.44C82.046 1333 82.7232 1334.74 82.9872 1335.89L83 1335.94V1336V1352H83.0289H83.0742H83.1196H83.1652H83.211H83.2569H83.303H83.3493H83.3958H83.4425H83.4893H83.5363H83.5834H83.6307H83.6782H83.7258H83.7737H83.8216H83.8698H83.9181H83.9665H84.0151H84.0639H84.1128H84.1619H84.2112H84.2606H84.3101H84.3598H84.4097H84.4597H84.5099H84.5602H84.6106H84.6613H84.712H84.7629H84.814H84.8651H84.9165H84.968H85.0196H85.0713H85.1232H85.1753H85.2274H85.2798H85.3322H85.3848H85.4375H85.4903H85.5433H85.5964H85.6497H85.7031H85.7566H85.8102H85.864H85.9178H85.9719H86.026H86.0802H86.1346H86.1891H86.2438H86.2985H86.3534H86.4083H86.4634H86.5186H86.574H86.6294H86.685H86.7406H86.7964H86.8523H86.9083H86.9644H87.0206H87.077H87.1334H87.1899H87.2466H87.3033H87.3602H87.4171H87.4742H87.5313H87.5886H87.6459H87.7034H87.7609H87.8185H87.8763H87.9341H87.992H88.05H88.1081H88.1663H88.2246H88.283H88.3414H88.3999H88.4586H88.5173H88.5761H88.635H88.6939H88.753H88.8121H88.8713H88.9306H88.9899H89.0493H89.1088H89.1684H89.2281H89.2878H89.3476H89.4075H89.4674H89.5274H89.5875H89.6477H89.7079H89.7682H89.8285H89.8889H89.9494H90.0099H90.0705H90.1312H90.1919H90.2526H90.3135H90.3744H90.4353H90.4963H90.5574H90.6185H90.6796H90.7408H90.8021H90.8634H90.9247H90.9861H91.0476H91.1091H91.1706H91.2322H91.2938H91.3555H91.4172H91.479H91.5407H91.6026H91.6644H91.7263H91.7883H91.8503H91.9123H91.9743H92.0364H92.0985H92.1606H92.2228H92.285H92.3472H92.4094H92.4717H92.534H92.5963H92.6587H92.721H92.7834H92.8458H92.9083H92.9707H93.0332H93.0957H93.1582H93.2207H93.2832H93.3457H93.4083H93.4709H93.5334H93.596H93.6586H93.7212H93.7838H93.8464H93.9091H93.9717H94.0343H94.0969H94.1596H94.2222H94.2848H94.3475H94.4101H94.4727H94.5353H94.598H94.6606H94.7232H94.7858H94.8484H94.9109H94.9735H95.0361H95.0986H95.1611H95.2237H95.2862H95.3487H95.4111H95.4736H95.536H95.5984H95.6608H95.7232H95.7856H95.8479H95.9102H95.9725H96.0347H96.097H96.1592H96.2213H96.2835H96.3456H96.4077H96.4697H96.5318H96.5938H96.6557H96.7176H96.7795H96.8413H96.9031H96.9649H97.0266H97.0883H97.15H97.2116H97.2731H97.3346H97.3961H97.4575H97.5189H97.5802H97.6415H97.7027H97.7639H97.825H97.8861H97.9471H98.0081H98.069H98.1298H98.1906H98.2513H98.312H98.3726H98.4332H98.4937H98.5541H98.6145H98.6748H98.735H98.7952H98.8553H98.9153H98.9753H99.0352H99.095H99.1548H99.2145H99.2741H99.3336H99.3931H99.4525H99.5118H99.571H99.6301H99.6892H99.7482H99.8071H99.8659H99.9247H99.9833H100.042H100.1H100.159H100.217H100.275H100.333H100.392H100.449H100.507H100.565H100.623H100.68H100.738H100.795H100.852H100.91H100.967H101.024H101.081H101.137H101.194H101.251H101.307H101.364H101.42H101.476H101.532H101.588H101.644H101.699H101.755H101.811H101.866H101.921H101.976H102.031H102.086H102.141H102.196H102.25H102.305H102.359H102.413H102.467H102.521H102.575H102.629H102.682H102.736H102.789H102.842H102.895H102.948H103.001H103.053H103.106H103.158H103.21H103.263H103.314H103.366H103.418H103.469H103.521H103.572H103.623H103.674H103.725H103.776H103.826H103.877H103.927H103.977H104.027H104.076H104.126H104.176H104.225H104.274H104.323H104.372H104.421H104.469H104.517H104.566H104.614H104.661H104.709H104.757H104.804H104.851H104.898H104.945H104.992H105.038H105.085H105.131H105.177H105.223H105.269H105.314H105.359H105.405H105.449H105.494H105.539H105.583H105.628H105.672H105.715H105.759H105.803H105.846H105.889H105.932H105.975H106.017H106.06H106.102H106.144H106.186H106.227H106.269H106.31H106.351H106.392H106.432H106.473H106.513H106.553H106.593H106.632H106.672H106.711H106.75H106.789H106.827H106.866H106.904H106.942H106.98H107.017H107.054H107.092H107.128H107.165H107.202H107.238H107.274H107.31H107.345H107.381H107.416H107.451H107.485H107.52H107.554H107.588H107.622H107.655H107.689H107.722H107.755H107.787H107.82H107.852H107.884H107.915H107.947H107.978H108.009H108.04H108.07H108.1H108.13H108.16H108.19H108.219H108.248H108.277H108.305H108.334H108.362H108.389H108.417H108.444H108.471H108.498H108.525H108.551H108.577H108.603H108.628H108.653H108.678H108.703H108.727H108.752H108.775H108.799H108.823H108.846H108.868H108.891H108.913H108.935H108.957H108.979H109C110.593 1352 111.838 1351.12 112.77 1349.94C113.686 1348.78 114.255 1347.38 114.5 1346.44C114.469 1320.36 95.3686 1307.26 85.837 1303.97L85.5644 1303.88L85.5092 1303.6L84.0172 1295.94C78.2225 1300.63 69.9321 1304.43 58.5249 1305C43.3718 1305.76 33.4834 1300.07 27.5766 1293.91C24.6285 1290.83 22.6743 1287.64 21.55 1285.08C20.9884 1283.81 20.629 1282.67 20.459 1281.78C20.3743 1281.34 20.3339 1280.94 20.3446 1280.61C20.3472 1280.53 20.3528 1280.44 20.3629 1280.36C19.184 1280.05 17.6299 1279.47 16.2542 1278.58C14.6685 1277.56 13.2274 1276.07 13.003 1274.06C12.5983 1270.41 12.8339 1259.14 13 1253.99C13.0041 1251.97 14.5152 1247.97 20.1649 1247.05C22.237 1242.82 26.4612 1236.68 32.5803 1231.59C38.7731 1226.44 46.9339 1222.36 56.7847 1222.5C56.7943 1222.49 56.8036 1222.49 56.8125 1222.48C56.8375 1222.47 56.8588 1222.47 56.8737 1222.46C56.9947 1222.43 57.1607 1222.42 57.3261 1222.42C57.6922 1222.41 58.3203 1222.43 59.3056 1222.49C61.2194 1222.61 64.5284 1222.88 70 1223.45V264.135C65.7749 266.489 60.6286 267.884 54.4688 267.499C34.9662 266.28 27.0378 251.069 25.5101 243.6L25.5058 243.579L25.5034 243.558C24.9111 238.481 25.4678 230.58 29.0645 223.328C32.6722 216.053 39.334 209.445 50.897 207.011C58.0897 205.496 62.9587 205.993 66.2178 206.999C67.8663 207.508 69.1043 208.152 70 208.71V136H70.3577C70.4014 135.927 70.4488 135.853 70.5 135.78V-1H71.5V134.756C71.7028 134.598 71.9261 134.443 72.17 134.292C73.4682 133.49 75.4067 132.775 78.1514 132.295C83.6414 131.336 92.4534 131.302 106.08 133.506L106.187 133.524L106.277 133.584C110.525 136.416 113.136 139.294 114.521 142.114C115.91 144.944 116.05 147.685 115.41 150.198C114.138 155.188 109.812 159.228 106.263 161.425L105.737 160.575C109.188 158.439 113.262 154.579 114.44 149.952C115.025 147.657 114.902 145.16 113.623 142.555C112.348 139.959 109.91 137.224 105.813 134.476C92.3007 132.298 83.6445 132.35 78.3236 133.28C75.6558 133.746 73.8505 134.429 72.6956 135.143C72.1545 135.477 71.7679 135.81 71.5 136.122V136.5H71.2244ZM65.9228 207.954C67.8459 208.548 69.1293 209.308 70 209.906V262.983C65.8363 265.421 60.7183 266.888 54.5312 266.501C35.6521 265.321 27.9771 250.627 26.4941 243.421C25.9238 238.497 26.4705 230.809 29.9604 223.772C33.4445 216.747 39.866 210.355 51.103 207.989C58.1603 206.504 62.8538 207.007 65.9228 207.954ZM71.2743 209.586C71.1912 209.525 71.0998 209.457 71 209.385V207.21C71.0683 207.749 71.1299 208.203 71.1817 208.585C71.2399 209.015 71.2857 209.352 71.3145 209.615L71.2743 209.586ZM71.3422 210.181C71.3421 210.181 71.3426 210.178 71.344 210.173C71.343 210.179 71.3424 210.181 71.3422 210.181ZM70.0801 1224.46C64.5038 1223.89 61.1587 1223.6 59.2443 1223.49C58.263 1223.43 57.6703 1223.41 57.3488 1223.42C57.2277 1223.42 57.1683 1223.43 57.1482 1223.43C57.1386 1223.43 57.1379 1223.43 57.1434 1223.43C57.1501 1223.43 57.1942 1223.41 57.2477 1223.38C57.2908 1223.35 57.4453 1223.24 57.4669 1223.02C57.4885 1222.79 57.3577 1222.66 57.32 1222.62C57.2889 1222.59 57.2598 1222.57 57.2416 1222.56C57.2326 1222.56 57.2262 1222.55 57.2236 1222.55L56.9898 1223.5C47.3415 1223.3 39.3296 1227.28 33.2196 1232.36C27.1049 1237.44 22.9226 1243.61 20.9507 1247.72L20.8351 1247.96L20.5707 1247.99C15.2457 1248.76 14 1252.39 14 1254V1254.01L13.9997 1254.02C13.8325 1259.2 13.6019 1270.39 13.9969 1273.94C14.1725 1275.53 15.3148 1276.79 16.7957 1277.74C18.2676 1278.69 19.9833 1279.27 21.1047 1279.51L21.8688 1279.67L21.4 1280.3C21.4009 1280.3 21.3523 1280.38 21.3441 1280.64C21.3365 1280.87 21.3649 1281.19 21.4413 1281.59C21.5936 1282.39 21.9256 1283.45 22.4656 1284.68C23.5443 1287.14 25.434 1290.23 28.2984 1293.22C34.0165 1299.18 43.6282 1304.74 58.475 1304C69.9256 1303.43 78.1418 1299.54 83.7998 1294.83L70.0801 1224.46ZM84.6722 1294.08C90.1804 1289.18 93.0545 1283.56 94.0162 1279.87L94.1232 1279.46L94.5452 1279.5C96.5591 1279.69 98.2157 1278.81 99.493 1277.6C100.747 1276.41 101.6 1274.92 102.006 1273.89C102.503 1266.41 102.741 1259.26 101.76 1254.35C101.266 1251.88 100.481 1250.07 99.353 1249.06C98.2699 1248.08 96.7844 1247.77 94.6581 1248.47L94.2153 1248.62L94.0376 1248.19C88.7743 1235.41 77.11 1227.55 71.1728 1224.84L84.6722 1294.08ZM58 1327.6V1313.03C45.4521 1313.62 33.9108 1307.44 29.4151 1304.06C17.978 1308.29 10.8847 1317.23 6.70092 1325.97C2.47842 1334.78 1.25685 1343.32 1.49849 1346.46C1.68599 1348.9 2.80395 1350.3 4.09763 1351.09C5.41815 1351.89 6.95806 1352.08 7.96161 1352L7.98076 1352H7.99996H33V1334.5V1334.42L33.0256 1334.34C33.6698 1332.41 35.0475 1330.96 36.4702 1329.93C37.8928 1328.91 39.398 1328.28 40.3684 1328.02L40.4247 1328L40.483 1328C44.9284 1327.85 51.6067 1327.67 58 1327.6Z" fill="#676BB9"/>
</svg>
