<svg id="visual" viewBox="0 0 900 600" width="900" height="600" xmlns="http://www.w3.org/2000/svg" xmlns:xlink="http://www.w3.org/1999/xlink" version="1.1"><rect x="0" y="0" width="900" height="600" fill="#a85aaa"></rect><defs><linearGradient id="grad1_0" x1="33.3%" y1="0%" x2="100%" y2="100%"><stop offset="20%" stop-color="#a85aaa" stop-opacity="1"></stop><stop offset="80%" stop-color="#a85aaa" stop-opacity="1"></stop></linearGradient></defs><defs><linearGradient id="grad2_0" x1="0%" y1="0%" x2="66.7%" y2="100%"><stop offset="20%" stop-color="#a85aaa" stop-opacity="1"></stop><stop offset="80%" stop-color="#a85aaa" stop-opacity="1"></stop></linearGradient></defs><g transform="translate(900, 0)"><path d="M0 486.7C-69.3 478.9 -138.6 471.1 -178.3 430.5C-218.1 389.9 -228.2 316.6 -275.8 275.8C-323.3 235 -408.3 226.8 -449.7 186.3C-491.1 145.7 -488.9 72.9 -486.7 0L0 0Z" fill="#202023"></path></g><g transform="translate(0, 600)"><path d="M0 -486.7C65.6 -481.8 131.2 -476.9 186.3 -449.7C241.3 -422.5 285.9 -373 324.6 -324.6C363.3 -276.1 396.2 -228.8 422.2 -174.9C448.3 -121 467.5 -60.5 486.7 0L0 0Z" fill="#202023"></path></g></svg>