<svg id="visual" viewBox="0 0 1500 450" width="1500" height="450" xmlns="http://www.w3.org/2000/svg" xmlns:xlink="http://www.w3.org/1999/xlink" version="1.1"><rect x="0" y="0" width="1500" height="450" fill="#ffffff"></rect><path d="M0 202L35.7 211.2C71.3 220.3 142.7 238.7 214.2 240.3C285.7 242 357.3 227 428.8 218C500.3 209 571.7 206 643 205.5C714.3 205 785.7 207 857 212.2C928.3 217.3 999.7 225.7 1071.2 225.5C1142.7 225.3 1214.3 216.7 1285.8 214.8C1357.3 213 1428.7 218 1464.3 220.5L1500 223L1500 451L1464.3 451C1428.7 451 1357.3 451 1285.8 451C1214.3 451 1142.7 451 1071.2 451C999.7 451 928.3 451 857 451C785.7 451 714.3 451 643 451C571.7 451 500.3 451 428.8 451C357.3 451 285.7 451 214.2 451C142.7 451 71.3 451 35.7 451L0 451Z" fill="#fa7268"></path><path d="M0 243L35.7 240.8C71.3 238.7 142.7 234.3 214.2 229.5C285.7 224.7 357.3 219.3 428.8 229.5C500.3 239.7 571.7 265.3 643 277.3C714.3 289.3 785.7 287.7 857 283.5C928.3 279.3 999.7 272.7 1071.2 260.8C1142.7 249 1214.3 232 1285.8 234.7C1357.3 237.3 1428.7 259.7 1464.3 270.8L1500 282L1500 451L1464.3 451C1428.7 451 1357.3 451 1285.8 451C1214.3 451 1142.7 451 1071.2 451C999.7 451 928.3 451 857 451C785.7 451 714.3 451 643 451C571.7 451 500.3 451 428.8 451C357.3 451 285.7 451 214.2 451C142.7 451 71.3 451 35.7 451L0 451Z" fill="#ef5f67"></path><path d="M0 280L35.7 275.7C71.3 271.3 142.7 262.7 214.2 264C285.7 265.3 357.3 276.7 428.8 279.2C500.3 281.7 571.7 275.3 643 281.3C714.3 287.3 785.7 305.7 857 310C928.3 314.3 999.7 304.7 1071.2 301.8C1142.7 299 1214.3 303 1285.8 308.8C1357.3 314.7 1428.7 322.3 1464.3 326.2L1500 330L1500 451L1464.3 451C1428.7 451 1357.3 451 1285.8 451C1214.3 451 1142.7 451 1071.2 451C999.7 451 928.3 451 857 451C785.7 451 714.3 451 643 451C571.7 451 500.3 451 428.8 451C357.3 451 285.7 451 214.2 451C142.7 451 71.3 451 35.7 451L0 451Z" fill="#e34c67"></path><path d="M0 335L35.7 334.8C71.3 334.7 142.7 334.3 214.2 331.8C285.7 329.3 357.3 324.7 428.8 331C500.3 337.3 571.7 354.7 643 363.3C714.3 372 785.7 372 857 370.3C928.3 368.7 999.7 365.3 1071.2 362.7C1142.7 360 1214.3 358 1285.8 351C1357.3 344 1428.7 332 1464.3 326L1500 320L1500 451L1464.3 451C1428.7 451 1357.3 451 1285.8 451C1214.3 451 1142.7 451 1071.2 451C999.7 451 928.3 451 857 451C785.7 451 714.3 451 643 451C571.7 451 500.3 451 428.8 451C357.3 451 285.7 451 214.2 451C142.7 451 71.3 451 35.7 451L0 451Z" fill="#d53867"></path><path d="M0 396L35.7 396.3C71.3 396.7 142.7 397.3 214.2 394.2C285.7 391 357.3 384 428.8 386.8C500.3 389.7 571.7 402.3 643 406.5C714.3 410.7 785.7 406.3 857 403.5C928.3 400.7 999.7 399.3 1071.2 395C1142.7 390.7 1214.3 383.3 1285.8 385.5C1357.3 387.7 1428.7 399.3 1464.3 405.2L1500 411L1500 451L1464.3 451C1428.7 451 1357.3 451 1285.8 451C1214.3 451 1142.7 451 1071.2 451C999.7 451 928.3 451 857 451C785.7 451 714.3 451 643 451C571.7 451 500.3 451 428.8 451C357.3 451 285.7 451 214.2 451C142.7 451 71.3 451 35.7 451L0 451Z" fill="#c62368"></path></svg>