<svg
  viewBox="0 0 123 1920"
  fill="none"
  preserveAspectRatio="xMidYMax meet">
  <path
    className="line"
    d="M73.5 0.5V99C80 97.6667 93.1704 97.8352 99.5 101C106.5 104.5 112.5 117 101.5 122C97.6376 123.756 90.4 122 84 122V167C82.5 174 69.5 185 55 174.5C46.5 167 47.1 142.3 71.5 145.5L74 1172M74 1172C80.3333 1173.83 93.6 1180.9 96 1194.5C100.5 1193.83 109.3 1194.6 108.5 1203C107.7 1211.4 108.167 1220.17 108.5 1223.5C108 1225.33 105.9 1228.7 101.5 1227.5H96C84.8333 1244.17 54.6 1267.9 23 1229.5C19.3333 1229.67 12.1 1228.2 12.5 1221C12.9 1213.8 12.6667 1206 12.5 1203C13 1199.17 15.8 1192.1 23 1194.5C26.3333 1183.17 41.2 1162.8 74 1172ZM74 1172L88 1250.5C98.3333 1253 118.5 1264.9 116.5 1292.5C116.167 1295 114.1 1299.9 108.5 1299.5C102.9 1299.1 90.8333 1299.33 85.5 1299.5V1286C85 1281.33 82 1272.8 74 1276H44.5C41.8333 1275.5 36.1 1276.3 34.5 1283.5V1299.5H8.99999C5.99999 1298.83 0.399994 1296.1 1.99999 1290.5C4.83333 1278.5 14.8 1253.7 32 1250.5C36.6667 1252.67 48.8 1257.4 60 1259V1867.5"
    stroke="#676BB9"
    strokeWidth="3"
  />
</svg>